#!OML:ASF E:\inclinewalkrobotboard\Project 1\Capture day 1\Session 1\subject1.ASF
:FULLY-SPECIFIED
:DEGREES
131
root 7.66695 11.14 8.67871 -159.692 -53.4805 159.826
lowerback 20.4667 2.9109 -5.37923
upperback 2.13387 2.71513 3.268
thorax -9.56388 1.48265 5.9354
lowerneck -4.7258 5.35229 -0.0339555
upperneck -21.8301 4.70715 -7.62463
head -5.61944 2.18447 -2.50515
rclavicle -4.69132e-014 -4.13472e-014
rhumerus -16.7577 -33.5653 -77.5773
rradius 55.2916
rwrist -45.1979
rhand 6.79901 -20.0665
rfingers 7.12502
rthumb 32.0844 -47.2555
lclavicle -4.69132e-014 -4.13472e-014
lhumerus 18.298 20.4136 52.9588
lradius 125.896
lwrist -31.4325
lhand -46.2579 -40.4625
lfingers 7.12502
lthumb -18.9937 -11.3698
rfemur -61.6492 -13.9893 -11.6009
rtibia 83.1017
rfoot 143.788 7.31928
rtoes -40.4232
lfemur -49.5604 -3.44057 -25.5437
ltibia 73.858
lfoot 0 0
ltoes 0
132
root 7.66595 11.1229 8.67406 -159.492 -53.5657 159.526
lowerback 20.4187 2.89697 -5.52717
upperback 2.15443 2.6634 3.23909
thorax -9.51241 1.46153 6.00466
lowerneck -5.02243 5.287 0.0839031
upperneck -21.4346 4.64431 -7.72874
head -5.44009 2.14731 -2.53975
rclavicle 2.78299e-014 -1.90833e-014
rhumerus -16.5032 -33.3801 -77.621
rradius 55.41
rwrist -45.3719
rhand 6.66361 -19.85
rfingers 7.12502
rthumb 31.9554 -47.0649
lclavicle 2.78299e-014 -1.90833e-014
lhumerus 18.5094 20.5987 52.9376
lradius 125.72
lwrist -31.2693
lhand -46.3325 -40.3758
lfingers 7.12502
lthumb -19.0655 -11.2902
rfemur -61.6579 -14.3507 -11.7447
rtibia 82.8909
rfoot 143.741 7.20847
rtoes -40.1422
lfemur -49.6119 -3.67643 -25.5967
ltibia 73.6031
lfoot 0 0
ltoes 0
133
root 7.66447 11.0962 8.66656 -159.666 -53.8195 159.702
lowerback 20.2983 2.81708 -5.41291
upperback 2.14473 2.59709 3.30931
thorax -9.44573 1.42585 6.03763
lowerneck -5.33836 5.19963 0.200253
upperneck -20.851 4.58236 -7.80501
head -5.20024 2.11232 -2.56138
rclavicle -1.11319e-014 2.22639e-014
rhumerus -16.1535 -33.327 -77.8501
rradius 55.4037
rwrist -45.2933
rhand 6.61966 -19.1392
rfingers 7.12502
rthumb 31.9136 -46.3624
lclavicle -1.11319e-014 2.22639e-014
lhumerus 18.7283 20.8218 52.898
lradius 125.483
lwrist -31.1421
lhand -46.4976 -40.6734
lfingers 7.12502
lthumb -19.2242 -11.6035
rfemur -61.6977 -14.879 -11.465
rtibia 82.5542
rfoot 143.608 7.06606
rtoes -39.7998
lfemur -49.8045 -3.77549 -25.3126
ltibia 73.2033
lfoot 0 0
ltoes 0
134
root 7.65803 11.0556 8.66227 -159.751 -54.0211 159.577
lowerback 20.2515 2.76932 -5.39872
upperback 2.18253 2.53775 3.31287
thorax -9.36866 1.39293 6.05107
lowerneck -5.88892 5.0408 0.141195
upperneck -20.0083 4.47954 -7.6952
head -4.85648 2.05558 -2.4852
rclavicle -3.02153e-014 -3.81667e-014
rhumerus -15.9945 -33.2978 -77.9393
rradius 55.7368
rwrist -45.1875
rhand 6.64785 -18.9859
rfingers 7.12502
rthumb 31.9404 -46.2037
lclavicle -3.02153e-014 -3.81667e-014
lhumerus 19.095 20.9602 53.0094
lradius 125.206
lwrist -31.1848
lhand -46.2157 -41.2212
lfingers 7.12502
lthumb -18.9532 -12.1247
rfemur -61.6568 -15.3864 -11.4871
rtibia 82.1514
rfoot 143.503 6.95466
rtoes -39.5381
lfemur -49.8496 -3.87203 -25.2913
ltibia 72.7275
lfoot 0 0
ltoes 0
135
root 7.65331 11.012 8.66034 -159.863 -54.1253 159.443
lowerback 20.3038 2.8091 -5.41067
upperback 2.19957 2.58309 3.30396
thorax -9.38518 1.41425 6.03437
lowerneck -6.35034 4.79414 -0.117178
upperneck -19.2388 4.28974 -7.34355
head -4.56914 1.96093 -2.30569
rclavicle -8.0309e-014 1.59028e-014
rhumerus -16.0278 -33.3698 -77.7511
rradius 56.4979
rwrist -45.1178
rhand 6.7932 -20.5138
rfingers 7.12502
rthumb 32.0788 -47.7039
lclavicle -8.0309e-014 1.59028e-014
lhumerus 19.4677 21.0589 53.1584
lradius 125
lwrist -31.2339
lhand -45.9726 -41.2728
lfingers 7.12502
lthumb -18.7193 -12.1535
rfemur -61.5841 -15.4455 -11.6323
rtibia 81.6988
rfoot 143.257 6.78876
rtoes -39.335
lfemur -49.8463 -3.9104 -25.3263
ltibia 72.2104
lfoot 0 0
ltoes 0
